<?xml version="1.0" encoding="utf-8"?>
<svg xmlns="http://www.w3.org/2000/svg" viewBox="1.5115 0.815 300.5073 129.6326" width="300.507px" height="129.633px">
  <path style="fill: #FFFFFF; stroke-width: 1;" d="M 3.143 48.433 C 3.143 48.433 40.541 40.197 76.888 63.977 C 113.235 87.757 112.013 127.312 112.013 127.312 C 112.013 127.312 75.179 138.08 41.364 119.707 C 7.549 101.334 -2.93 47.745 3.143 48.433 Z" id="object-0"/>
  <ellipse style="fill: #FFFFFF;" cx="151.765" cy="26.724" rx="25.909" ry="25.909" id="object-1" transform="matrix(1, 0, 0, 1, -1.4210854715202004e-14, 0)"/>
  <path
  d="M 3.143 48.433 C 3.143 48.433 40.541 40.197 76.888 63.977 C 113.235 87.757 112.013 127.312 112.013 127.312 C 112.013 127.312 75.179 138.08 41.364 119.707 C 7.549 101.334 -2.93 47.745 3.143 48.433 Z"
  fill="#FFFFFF"
  transform="translate(304 0) scale(-1 1)"
/>

</svg>